<!-- icon666.com - MILLIONS vector ICONS FREE --><svg viewBox="0 0 64 64" xmlns="http://www.w3.org/2000/svg"><g id="Layer_26" data-name="Layer 26"><circle cx="32" cy="32" fill="#33d9b2" r="28.75" style="fill: rgb(217, 217, 217);"></circle><g fill="#fff"><path d="m56.36 31.54c-.45-.54-11.02-14.16-24.36-14.16s-23.91 13.62-24.36 14.16a.78.78 0 0 0 0 .92c.45.57 11 14.16 24.36 14.16s23.91-13.62 24.36-14.16a.78.78 0 0 0 0-.92zm-24.36 13.58c-11.26 0-20.83-10.75-22.8-13.12 2-2.37 11.54-13.12 22.8-13.12s20.83 10.75 22.8 13.12c-1.97 2.37-11.54 13.12-22.8 13.12z" fill="#fff" style="fill: rgb(112, 112, 112);"></path><path d="m32 23.3a8.7 8.7 0 1 0 8.7 8.7 8.71 8.71 0 0 0 -8.7-8.7zm0 15.9a7.2 7.2 0 1 1 7.2-7.2 7.21 7.21 0 0 1 -7.2 7.2z" fill="#fff" style="fill: rgb(112, 112, 112);"></path></g></g></svg>